PathFileType	4	(X/Y/Z)	/Users/itak/Documents/Research/Walk-IL/dataset/trc/00470_00167.trc
DataRate	CameraRate	NumFrames	NumMarkers	Units	OrigDataRate	OrigDataStartFrame	OrigNumFrames
100.000000	100.000000	4	53	mm	100.000000	553	632
Frame#	Time	RPSI			LPSI			L3			STRN			T10			C7			CLAV			RBAK			LBAK			LSHO			LUPA			LAEL			LAOL			LWTS			LWPS			LFRA			LIFD			LHPS			LHTS			RSHO			RUPA			RAEL			RAOL			RWTS			RWPS			RFRA			RIFD			RHTS			RHPS			RBHD			LFHD			RFHD			LBHD			LHIP			RHIP			RASI			LASI			LKNE			LTHI			LANK			LTIP			LTOE			LMT1			LMT5			LHEE			RKNE			RTHI			RANK			RTIP			RTOE			RMT1			RMT5			RHEE			
		X1	Y1	Z1	X2	Y2	Z2	X3	Y3	Z3	X4	Y4	Z4	X5	Y5	Z5	X6	Y6	Z6	X7	Y7	Z7	X8	Y8	Z8	X9	Y9	Z9	X10	Y10	Z10	X11	Y11	Z11	X12	Y12	Z12	X13	Y13	Z13	X14	Y14	Z14	X15	Y15	Z15	X16	Y16	Z16	X17	Y17	Z17	X18	Y18	Z18	X19	Y19	Z19	X20	Y20	Z20	X21	Y21	Z21	X22	Y22	Z22	X23	Y23	Z23	X24	Y24	Z24	X25	Y25	Z25	X26	Y26	Z26	X27	Y27	Z27	X28	Y28	Z28	X29	Y29	Z29	X30	Y30	Z30	X31	Y31	Z31	X32	Y32	Z32	X33	Y33	Z33	X34	Y34	Z34	X35	Y35	Z35	X36	Y36	Z36	X37	Y37	Z37	X38	Y38	Z38	X39	Y39	Z39	X40	Y40	Z40	X41	Y41	Z41	X42	Y42	Z42	X43	Y43	Z43	X44	Y44	Z44	X45	Y45	Z45	X46	Y46	Z46	X47	Y47	Z47	X48	Y48	Z48	X49	Y49	Z49	X50	Y50	Z50	X51	Y51	Z51	X52	Y52	Z52	X53	Y53	Z53	

554	5.53	-637.71826171875	955.5281372070312	-417.0585327148438	-652.6634521484375	956.4364624023438	-277.0597839355469	-652.4378662109375	1048.099609375	-361.9899291992188	-913.553466796875	1260.204223632812	-367.0079650878906	-630.048828125	1171.18017578125	-354.1565551757812	-681.0618286132812	1442.735473632812	-362.7690124511719	-870.958740234375	1370.347900390625	-359.71630859375	-620.569580078125	1323.083740234375	-456.1287841796875	-654.4042358398438	1389.681030273438	-263.0281066894531	-758.2999877929688	1416.252563476562	-189.9965209960938	-761.3726806640625	1299.971313476562	-90.77790069580078	-808.3817138671875	1091.66259765625	-49.35941314697266	-728.36181640625	1063.323364257812	-110.4855346679688	-925.87890625	911.2658081054688	-97.20668029785156	-886.3033447265625	886.214111328125	-39.37703323364258	-846.8590698242188	1009.727416992188	-40.3404655456543	-970.172119140625	759.2626342773438	-85.16272735595703	-911.5055541992188	813.2852783203125	-39.08207702636719	-961.2536010742188	833.4341430664062	-87.58297729492188	-743.4931030273438	1423.009399414062	-526.4314575195312	-718.7286987304688	1366.093017578125	-601.471923828125	-704.9387817382812	1088.533325195312	-680.129150390625	-661.536865234375	1069.216186523438	-631.4888305664062	-802.927734375	877.2708740234375	-679.2037353515625	-725.58203125	872.01953125	-722.4658203125	-703.825439453125	1032.354248046875	-696.3619384765625	-795.9598388671875	724.4647216796875	-713.4588623046875	-810.24072265625	782.5130615234375	-707.353271484375	-736.5672607421875	788.7290649414062	-737.4680786132812	-722.2095947265625	1638.318603515625	-436.7936706542969	-870.3956298828125	1683.32763671875	-299.4566345214844	-851.1016845703125	1687.343872070312	-428.6455078125	-731.3712158203125	1633.825927734375	-259.3930358886719	-800.10693359375	866.5349731445312	-170.3687133789062	-739.8257446289062	859.331298828125	-568.0673828125	-852.0692138671875	902.029052734375	-515.6082153320312	-890.86865234375	903.1240844726562	-259.3605041503906	-797.3502197265625	448.8127136230469	-198.8608856201172	-825.7880859375	600.931396484375	-182.2533874511719	-734.4652709960938	39.54986953735352	-197.9501800537109	-793.2610473632812	301.0874328613281	-184.3339080810547	-961.0250244140625	44.55978393554688	-284.6484069824219	-883.4166870117188	50.55193328857422	-307.9808044433594	-888.3779296875	46.26223754882812	-193.6483459472656	-685.2381591796875	44.56035614013672	-258.1608581542969	-776.2232666015625	471.4285278320312	-560.0320434570312	-782.77685546875	729.3487548828125	-588.0533447265625	-702.7190551757812	47.56779098510742	-587.2606201171875	-771.5802001953125	327.0856323242188	-579.1039428710938	-914.960693359375	46.63941192626953	-528.0529174804688	-846.8317260742188	46.14091873168945	-496.6008911132812	-838.9873657226562	48.92578506469727	-603.349853515625	-633.60302734375	41.02322387695312	-543.8613891601562	
555	5.54	-638.42822265625	955.668701171875	-416.1632690429688	-653.61376953125	956.39599609375	-276.1822509765625	-653.2666625976562	1048.089233398438	-361.203857421875	-914.5164794921875	1260.00927734375	-367.1835632324219	-631.0921020507812	1171.365112304688	-353.3957214355469	-682.2178955078125	1442.850952148438	-362.2027587890625	-872.0470581054688	1370.208618164062	-359.8367309570312	-621.322265625	1323.107177734375	-455.2600708007812	-655.859375	1389.790283203125	-262.3424072265625	-760.121337890625	1416.199340820312	-189.7244873046875	-763.4946899414062	1299.907470703125	-90.54114532470703	-809.8073120117188	1091.617797851562	-48.90943908691406	-729.3462524414062	1063.785766601562	-109.7916641235352	-923.8265991210938	908.286376953125	-94.71083831787109	-883.6920166015625	884.7872924804688	-36.62611389160156	-846.76953125	1009.132690429688	-39.06502914428711	-964.1326904296875	755.1410522460938	-81.07925415039062	-906.9909057617188	811.1989135742188	-35.60870742797852	-957.2103881835938	829.5082397460938	-84.34938049316406	-744.070068359375	1423.043334960938	-526.0462646484375	-718.7099609375	1366.192504882812	-600.8924560546875	-703.8156127929688	1088.70751953125	-679.8843383789062	-660.4826049804688	1069.111450195312	-631.2125244140625	-803.7051391601562	878.6029663085938	-679.0963745117188	-726.2269897460938	872.1492309570312	-721.9906005859375	-703.0413818359375	1032.469116210938	-696.1265258789062	-799.0194091796875	725.640380859375	-712.8251953125	-812.3674926757812	783.9129028320312	-707.0172729492188	-738.4136962890625	788.8851928710938	-736.7177734375	-723.2094116210938	1638.124145507812	-436.7922973632812	-871.3692626953125	1683.498168945312	-299.5687255859375	-851.9524536132812	1687.3759765625	-428.8008728027344	-732.4479370117188	1633.820068359375	-259.3901672363281	-801.1887817382812	866.3947143554688	-169.9317016601562	-739.866455078125	859.4765014648438	-567.4721069335938	-852.5874633789062	901.87451171875	-515.3658447265625	-891.7771606445312	902.9103393554688	-259.1752014160156	-797.5147705078125	448.7200622558594	-198.6209259033203	-826.1636962890625	600.7902221679688	-181.8501434326172	-734.4768676757812	39.53213882446289	-197.9280242919922	-793.3866577148438	301.0658569335938	-184.1661071777344	-961.0205688476562	44.53241348266602	-284.67529296875	-883.4180297851562	50.55228424072266	-307.9772644042969	-888.3875122070312	46.24687576293945	-193.6199035644531	-685.2317504882812	44.57946014404297	-258.1177368164062	-775.4371337890625	471.5451049804688	-559.7400512695312	-782.6248168945312	729.4571533203125	-587.6779174804688	-702.7193603515625	47.49372863769531	-587.2860717773438	-770.9990844726562	327.2788696289062	-578.9490356445312	-914.9180908203125	46.66753768920898	-528.0676879882812	-846.795166015625	46.18734359741211	-496.6239013671875	-838.963623046875	48.90406799316406	-603.3917846679688	-633.5567016601562	40.958984375	-543.8475341796875	
556	5.55	-639.0928344726562	955.751220703125	-415.2764282226562	-654.5693359375	956.376220703125	-275.3103332519531	-654.1060180664062	1048.04052734375	-360.3881225585938	-915.456787109375	1259.778198242188	-367.4148864746094	-632.1082763671875	1171.530395507812	-352.6093139648438	-683.3650512695312	1442.950073242188	-361.6466674804688	-873.1032104492188	1370.012817382812	-359.9879150390625	-622.0452880859375	1323.099609375	-454.3872375488281	-657.3311157226562	1389.877075195312	-261.6892395019531	-761.9385375976562	1416.104736328125	-189.4584503173828	-765.536376953125	1299.757446289062	-90.33985900878906	-811.0361938476562	1091.485961914062	-48.52690505981445	-730.166748046875	1064.197021484375	-109.2302474975586	-921.5438842773438	905.3448486328125	-92.27532958984375	-880.8660278320312	883.4148559570312	-33.95801162719727	-846.4683837890625	1008.493408203125	-37.87038803100586	-957.93115234375	751.2345581054688	-76.96653747558594	-902.3160400390625	809.2631225585938	-32.15617370605469	-952.9617919921875	825.730224609375	-81.1099853515625	-744.6217041015625	1423.0009765625	-525.6912841796875	-718.72998046875	1366.179443359375	-600.3367919921875	-702.9774780273438	1088.784545898438	-679.6300048828125	-659.6473999023438	1068.938720703125	-630.9920654296875	-804.6040649414062	879.751220703125	-678.847412109375	-727.0887451171875	872.2008056640625	-721.4835205078125	-702.523681640625	1032.487426757812	-695.8763427734375	-802.03369140625	726.6865844726562	-712.0755004882812	-814.52783203125	785.1453247070312	-706.5154418945312	-740.3971557617188	788.9720458984375	-735.93212890625	-724.183837890625	1637.8623046875	-436.8210144042969	-872.2931518554688	1683.665649414062	-299.7010803222656	-852.7562255859375	1687.395629882812	-428.9682006835938	-733.5054931640625	1633.750244140625	-259.4229431152344	-802.2939453125	866.2582397460938	-169.5330505371094	-739.8807983398438	859.56396484375	-566.9223022460938	-853.0816650390625	901.713623046875	-515.2047119140625	-892.6950073242188	902.6791381835938	-259.0853271484375	-797.6465454101562	448.6304626464844	-198.4067993164062	-826.568115234375	600.6382446289062	-181.5342407226562	-734.4854736328125	39.51392364501953	-197.9041595458984	-793.489990234375	301.0454406738281	-184.0164337158203	-961.0081176757812	44.51364898681641	-284.6989440917969	-883.4140625	50.55303573608398	-307.9725341796875	-888.3946533203125	46.23260879516602	-193.5926971435547	-685.2156982421875	44.59516143798828	-258.0713500976562	-774.7780151367188	471.6433410644531	-559.5084838867188	-782.526123046875	729.5670776367188	-587.37646484375	-702.728515625	47.42049789428711	-587.3163452148438	-770.5240478515625	327.4390869140625	-578.8220825195312	-914.8859252929688	46.69220733642578	-528.0831298828125	-846.7632446289062	46.23370742797852	-496.6518249511719	-838.9412841796875	48.87460327148438	-603.443603515625	-633.5252685546875	40.90144729614258	-543.8423461914062	
557	5.56	-639.6866455078125	955.7966918945312	-414.4085998535156	-655.5205078125	956.4036865234375	-274.4671325683594	-654.9468383789062	1047.977783203125	-359.5646057128906	-916.3731079101562	1259.522705078125	-367.6984252929688	-633.098876953125	1171.670532226562	-351.794189453125	-684.4933471679688	1443.036987304688	-361.0927734375	-874.1253662109375	1369.777221679688	-360.1665344238281	-622.7431030273438	1323.076171875	-453.5095825195312	-658.8101806640625	1389.953857421875	-261.0628356933594	-763.744873046875	1415.978515625	-189.1922149658203	-767.48388671875	1299.544921875	-90.15853881835938	-812.0410766601562	1091.279907226562	-48.19896697998047	-730.8148193359375	1064.5732421875	-108.8031768798828	-919.0432739257812	902.4756469726562	-89.90248107910156	-877.8203125	882.1088256835938	-31.39411926269531	-845.9408569335938	1007.820861816406	-36.7500114440918	-951.6305541992188	747.5816040039062	-72.83639526367188	-897.4911499023438	807.4906005859375	-28.76135635375977	-948.5423583984375	822.1423950195312	-77.86811065673828	-745.13037109375	1422.892822265625	-525.3640747070312	-718.7757568359375	1366.070556640625	-599.8047485351562	-702.4457397460938	1088.781127929688	-679.3753662109375	-659.0540161132812	1068.72265625	-630.8388061523438	-805.5958862304688	880.7115478515625	-678.450927734375	-728.1493530273438	872.1763916015625	-720.95654296875	-702.29296875	1032.42822265625	-695.6234741210938	-805.002197265625	727.6025390625	-711.1807250976562	-816.7027587890625	786.2208862304688	-705.826416015625	-742.4996948242188	788.9859619140625	-735.1203002929688	-725.12255859375	1637.546264648438	-436.8729553222656	-873.1749877929688	1683.84033203125	-299.8606567382812	-853.5198974609375	1687.409790039062	-429.1429443359375	-734.5496826171875	1633.629638671875	-259.4798278808594	-803.404541015625	866.1358642578125	-169.1873474121094	-739.8784790039062	859.6044921875	-566.42236328125	-853.5369262695312	901.5560913085938	-515.12646484375	-893.6088256835938	902.44287109375	-259.0827331542969	-797.7669067382812	448.5430297851562	-198.2227020263672	-827.011474609375	600.4783935546875	-181.3233795166016	-734.4909057617188	39.49734115600586	-197.8807525634766	-793.57958984375	301.0242309570312	-183.8888244628906	-960.990478515625	44.50101852416992	-284.7209167480469	-883.4063110351562	50.55234909057617	-307.9689025878906	-888.3989868164062	46.22007751464844	-193.5699768066406	-685.193359375	44.60878372192383	-258.0255432128906	-774.2702026367188	471.7229309082031	-559.3338623046875	-782.4774169921875	729.6752319335938	-587.1442260742188	-702.7425537109375	47.35536193847656	-587.3474731445312	-770.1696166992188	327.5650634765625	-578.7238159179688	-914.8643798828125	46.71049880981445	-528.0964965820312	-846.7393188476562	46.27627944946289	-496.6832275390625	-838.9231567382812	48.84152221679688	-603.501708984375	-633.5125732421875	40.8561897277832	-543.8444213867188	
